<?xml version="1.0" encoding="UTF-8" standalone="no"?>
<!DOCTYPE svg PUBLIC "-//W3C//DTD SVG 1.1//EN" "http://www.w3.org/Graphics/SVG/1.1/DTD/svg11.dtd">
<svg width="100%" height="100%" viewBox="0 0 1280 1280" version="1.1" xmlns="http://www.w3.org/2000/svg" xmlns:xlink="http://www.w3.org/1999/xlink" xml:space="preserve" xmlns:serif="http://www.serif.com/" style="fill-rule:evenodd;clip-rule:evenodd;stroke-linecap:round;stroke-linejoin:round;stroke-miterlimit:1.5;">
    <circle cx="640" cy="640" r="640" style="fill:white;"/>
    <g transform="matrix(0.949214,0,0,0.949214,34.8761,58.6064)">
        <path d="M986,899.999C986,830.412 929.588,774 860.001,774L414.999,774C345.412,774 289,830.412 289,899.999L289,900.001C289,969.588 345.412,1026 414.999,1026L860.001,1026C929.588,1026 986,969.588 986,900.001L986,899.999Z" style="fill:white;stroke:black;stroke-width:52.68px;"/>
    </g>
    <g transform="matrix(0.949214,0,0,0.949214,31.0792,58.6064)">
        <path d="M849,833.629C849,851.232 842.007,868.114 829.56,880.56C817.114,893.007 800.232,900 782.629,900L500.371,900C482.768,900 465.886,893.007 453.44,880.56C440.993,868.114 434,851.232 434,833.629L434,667.5C434,552.901 526.901,460 641.5,460C696.532,460 749.311,481.862 788.225,520.775C827.138,559.689 849,612.468 849,667.5L849,833.629Z" style="fill:white;stroke:black;stroke-width:52.68px;"/>
    </g>
    <g transform="matrix(0.949214,0,0,0.949214,33.4522,58.6064)">
        <path d="M742,301.999C742,245.114 695.886,199 639.001,199L638.999,199C582.114,199 536,245.114 536,301.999L536,357.001C536,413.886 582.114,460 638.999,460L639.001,460C695.886,460 742,413.886 742,357.001L742,301.999Z" style="fill:white;stroke:black;stroke-width:52.68px;"/>
    </g>
    <g transform="matrix(0.949214,0,0,0.608305,32.503,292.12)">
        <path d="M542,680L542,768L738,768L738,680" style="fill:none;stroke:black;stroke-width:62.72px;"/>
    </g>
    <g transform="matrix(0.949214,0,0,1.99336,34.8761,-737.602)">
        <path d="M637.5,828L637.5,750.943" style="fill:none;stroke:black;stroke-width:32.03px;"/>
    </g>
</svg>
