<?xml version="1.0" encoding="UTF-8" standalone="no"?>
<!DOCTYPE svg PUBLIC "-//W3C//DTD SVG 1.1//EN" "http://www.w3.org/Graphics/SVG/1.1/DTD/svg11.dtd">
<svg width="100%" height="100%" viewBox="0 0 1280 1280" version="1.1" xmlns="http://www.w3.org/2000/svg" xmlns:xlink="http://www.w3.org/1999/xlink" xml:space="preserve" xmlns:serif="http://www.serif.com/" style="fill-rule:evenodd;clip-rule:evenodd;stroke-linejoin:round;stroke-miterlimit:2;">
    <circle cx="640" cy="640" r="640" style="fill:white;"/>
    <g transform="matrix(0.949214,0,0,0.949214,34.8761,58.6064)">
        <path d="M986,899.999C986,830.412 929.588,774 860.001,774L414.999,774C345.412,774 289,830.412 289,899.999L289,900.001C289,969.588 345.412,1026 414.999,1026L860.001,1026C929.588,1026 986,969.588 986,900.001L986,899.999Z" style="fill:white;"/>
    </g>
    <g transform="matrix(0.949214,0,0,0.949214,31.0792,58.6064)">
        <path d="M849,833.629C849,851.232 842.007,868.114 829.56,880.56C817.114,893.007 800.232,900 782.629,900L500.371,900C482.768,900 465.886,893.007 453.44,880.56C440.993,868.114 434,851.232 434,833.629L434,667.5C434,552.901 526.901,460 641.5,460C696.532,460 749.311,481.862 788.225,520.775C827.138,559.689 849,612.468 849,667.5L849,833.629Z" style="fill:white;"/>
    </g>
    <g transform="matrix(0.949214,0,0,0.949214,33.4522,58.6064)">
        <path d="M742,301.999C742,245.114 695.886,199 639.001,199L638.999,199C582.114,199 536,245.114 536,301.999L536,357.001C536,413.886 582.114,460 638.999,460L639.001,460C695.886,460 742,413.886 742,357.001L742,301.999Z" style="fill:white;"/>
    </g>
    <path d="M417.946,768.776C417.957,743.014 417.996,717.252 418.037,691.49C418.312,633.612 442.062,576.24 483.048,535.254C503.87,514.432 528.9,498.021 556.16,486.896C541.906,473.53 530.718,456.847 524.176,438.271C519.618,425.329 517.295,411.631 517.229,397.873C517.199,380.206 517.199,362.539 517.229,344.871C517.423,304.059 539.136,264.378 573.187,242.256C592.609,229.637 615.668,222.761 638.813,222.503C639.341,222.499 639.869,222.497 640.397,222.498C691.113,222.739 739.684,256.757 756.315,305.896C760.512,318.298 762.664,331.351 762.769,344.477C762.853,362.275 762.798,380.073 762.771,397.871C762.613,431.178 748.075,464.048 723.803,487.075C763.324,503.323 798.463,530.753 823.149,566.807C848.124,603.285 861.755,647.109 861.963,691.516C862.004,717.259 862.005,743.001 861.996,768.744C910.777,772.657 956.884,802.317 979.769,846.662C1003.94,893.501 999.947,953.542 968.858,996.979C942.343,1034.03 898.07,1057.28 851.667,1057.5C710.556,1057.72 569.444,1057.72 428.333,1057.5C374.426,1057.25 321.918,1024.65 298.279,975.209C275.696,927.974 281.057,868.463 313.459,825.672C338.151,793.063 376.888,771.966 417.946,768.776ZM417.968,818.98C398.474,821.275 379.734,829.659 365.199,842.87C335.699,869.683 325.506,915.934 343.27,953.381C358.429,985.339 392.834,1007.33 428.491,1007.5C569.599,1007.72 710.71,1008.16 851.817,1007.5C896.324,1007.14 938.553,972.409 944.921,925.865C947.606,906.234 944.01,885.777 934.667,868.328C920.306,841.504 892.176,822.681 861.972,819.02C861.967,829.326 861.964,839.632 861.964,849.938C861.875,878.66 846.988,906.764 823.233,922.815C808.954,932.464 791.833,937.74 774.507,937.9C685.005,938.179 595.502,937.901 505.999,937.901C477.843,937.813 450.194,923.487 434.04,900.502C423.815,885.954 418.205,868.333 418.037,850.445C418.005,839.957 417.983,829.468 417.968,818.98ZM665.002,784.298L665.002,888.098C701.401,888.077 737.8,888.009 774.199,887.896C793.887,887.715 811.767,870.624 811.959,850.134C812.123,797.314 812.043,744.493 811.959,691.673C811.698,635.964 783.336,581.941 737.15,550.318C708.895,530.973 674.948,520.408 640.535,520.248C640.17,520.247 639.806,520.247 639.442,520.248C594.752,520.46 550.192,538.827 518.406,570.613C486.728,602.291 468.257,646.283 468.041,691.649C467.958,744.477 467.881,797.307 468.041,850.135C468.225,869.815 485.31,887.707 505.801,887.896C542.2,888.009 578.599,888.077 614.998,888.098L614.998,784.298L546.977,784.298C545.775,784.266 545.471,784.282 544.274,784.152C533.072,782.933 523.356,773.335 522.123,762.001C521.993,760.804 522.01,760.501 521.977,759.298L521.977,705.767C522.01,704.565 521.993,704.262 522.123,703.064C523.622,689.282 538.22,678.241 552.351,681.352C563.358,683.775 571.664,694.199 571.977,705.767L571.977,734.298L639.081,734.298C639.818,734.262 640.265,734.278 640.639,734.298L708.023,734.298L708.023,705.767C708.055,704.565 708.039,704.262 708.169,703.064C709.382,691.913 718.887,682.157 730.32,680.914C732.928,680.63 733.543,680.781 734.376,680.804C735.575,680.902 735.879,680.902 737.068,681.097C747.735,682.846 756.686,692.119 757.876,703.064C758.007,704.262 757.99,704.565 758.023,705.767L758.023,759.298C757.99,760.501 758.007,760.804 757.876,762.001C756.658,773.204 747.059,782.919 735.726,784.152C734.529,784.282 734.226,784.266 733.023,784.298L665.002,784.298ZM639.762,272.503C609.984,272.644 581.316,292.759 571.342,321.083C568.639,328.759 567.272,336.89 567.234,345.032C567.204,362.672 567.151,380.312 567.235,397.952C567.38,416.562 574.91,434.971 587.932,448.308C605.068,465.86 631.425,473.756 655.356,468.625C687.264,461.783 712.496,431.755 712.765,397.95C712.849,380.232 712.849,362.513 712.765,344.795C712.529,315.212 692.78,286.976 664.812,276.835C656.799,273.929 648.23,272.489 639.762,272.503Z"/>
</svg>
